<?xml version="1.0" encoding="UTF-8"?>
<svg width="256px" height="256px" viewBox="0 0 256 256" version="1.1" xmlns="http://www.w3.org/2000/svg" xmlns:xlink="http://www.w3.org/1999/xlink">
    <!-- Generator: Sketch 43.2 (39069) - http://www.bohemiancoding.com/sketch -->
    <title>256</title>
    <desc>Created with Sketch.</desc>
    <defs>
        <rect id="path-1" x="0.0786071077" y="0.0344061193" width="50.0843731" height="42.9563046"></rect>
        <rect id="path-3" x="0.0860178787" y="0.0886619227" width="36.9546041" height="61.5603549"></rect>
        <path d="M29.0224323,25.9607403 C14.0288543,41.2357339 0.0807244708,59.9791291 0.0807244708,59.9791291 C0.0807244708,59.9791291 22.4665466,63.6645538 37.3886635,60.0863173 C62.8750993,53.9752612 59.4039471,0.0886619227 59.4039471,0.0886619227 C59.4039471,0.0886619227 44.0146869,10.68707 29.0224323,25.9607403 Z" id="path-5"></path>
        <rect id="path-7" x="0.101633432" y="0.108511607" width="36.882746" height="61.616331"></rect>
        <path d="M22.1804379,60.1418965 C37.0975261,63.7452758 59.4887739,60.0969038 59.4887739,60.0969038 C59.4887739,60.0969038 45.5720075,41.3310124 30.6050289,26.0308758 C15.637918,10.7320626 0.266258419,0.108511607 0.266258419,0.108511607 C0.266258419,0.108511607 -3.29474943,53.9898177 22.1804379,60.1418965 Z" id="path-9"></path>
    </defs>
    <g id="Page-1" stroke="none" stroke-width="1" fill="none" fill-rule="evenodd">
        <g id="256">
            <rect id="Rectangle-2" fill="#FFD700" x="0" y="0" width="256" height="256" rx="32"></rect>
            <g id="Group-2">
                <path d="M137.952876,51.4947384 C137.952876,51.4947384 137.327844,44.7598135 147.817118,34.8723353 C151.231306,32.1325649 150.950855,24.3911069 147.817118,22.4156201 C144.683382,20.4401333 139.777555,21.7359149 134.594965,25.4631438 C126.442527,31.1227255 119.241767,51.4947384 119.241767,51.4947384 L137.952876,51.4947384 Z" id="Path-3" fill="#58595B"></path>
                <g id="outer-stroke" transform="translate(44.304212, 47.127808)" fill-rule="nonzero" fill="#58595B">
                    <path d="M129.786422,30.9324245 L129.786422,17.4978936 C129.786422,7.90004198 108.733215,0.119362768 83.5944243,0.119362768 C58.455633,0.119362768 37.2675768,7.90030664 37.2675768,17.4981583 L37.2675768,30.9185297 C14.4144791,45.7369806 0.114999287,71.3921681 0.114999287,100.559823 C0.114999287,146.433767 37.4852682,183.621489 83.5837051,183.621489 C129.681877,183.621489 167.052014,146.433767 167.052014,100.559823 C167.052014,71.4011667 152.627477,45.7529927 129.786422,30.9324245" id="Shape"></path>
                </g>
                <g id="ball" transform="translate(48.274268, 68.036142)" fill-rule="nonzero">
                    <path d="M159.115872,79.238616 C159.115872,122.933064 123.521674,158.352841 79.6136492,158.352841 C35.7057568,158.352841 0.111426237,122.933064 0.111426237,79.238616 C0.111426237,35.5445648 35.7057568,0.123729698 79.6136492,0.123729698 C123.521674,0.123729698 159.115872,35.5445648 159.115872,79.238616" id="Shape" fill="#0086CC"></path>
                    <path d="M156.642527,79.238616 C156.642527,121.572699 122.155975,155.89148 79.6136492,155.89148 C37.0719854,155.89148 2.58503576,121.572699 2.58503576,79.238616 C2.58503576,36.9040035 37.0719854,2.58522287 79.6136492,2.58522287 C122.155975,2.58522287 156.642527,36.9040035 156.642527,79.238616" id="Shape" fill="#1375BC"></path>
                    <g id="Group" transform="translate(36.259844, 12.174473)" fill="#2A3890" opacity="0.399994">
                        <g id="Shape">
                            <path d="M84.9724307,18.8049963 C84.9724307,25.6909988 67.3268554,31.2730648 43.383051,31.2730648 C19.4389819,31.2730648 1.79406828,25.6909988 1.79406828,18.8049963 L1.18837008,8.79480078 L0.653338873,0.0218750227 L0.00926346387,21.1268737 C0.00926346387,28.2672746 18.525075,43.0625446 43.3538049,43.0625446 C68.1830641,43.0625446 86.7192553,29.0327847 86.7192553,21.8924995 L85.9278908,2.43044233 L84.9724307,18.8049963 Z"></path>
                        </g>
                    </g>
                    <g id="Group" transform="translate(3.970056, 2.514293)" fill="#24AAE1" opacity="0.199997">
                        <g id="Shape">
                            <path d="M0.0365245147,61.995857 C8.13623265,77.9457399 32.5355348,122.98732 75.4502515,122.98732 C118.364571,122.98732 139.301323,76.7243226 151.249868,61.995857 C144.349911,26.7082794 113.122774,0.0710618694 75.6435932,0.0710618694 C38.1644124,0.0710618694 6.93793743,26.7082794 0.0365245147,61.995857 Z"></path>
                        </g>
                    </g>
                </g>
                <g id="Eyes" transform="translate(58.993419, 122.291945)">
                    <g id="Group" transform="translate(43.802951, 31.097839)" opacity="0.199997">
                        <g id="Clipped">
                            <g>
                                <mask id="mask-2" fill="white">
                                    <use xlink:href="#path-1"></use>
                                </mask>
                                <g id="Rectangle-path"></g>
                                <path d="M50.1629802,0.0767521122 C50.1629802,0.0767521122 31.2191966,22.4936621 25.1018697,22.4936621 C18.9849399,22.4843989 0.0786071077,0.0344061193 0.0786071077,0.0344061193 C0.0786071077,0.0344061193 24.2886699,31.1348913 21.1757491,37.8520244 C23.2217836,33.7656361 13.0813343,42.9242804 25.120529,42.990446 C37.1597236,43.0552883 26.9630319,33.7682827 29.002582,37.858641 C25.9005126,31.1362146 50.1629802,0.0767521122 50.1629802,0.0767521122" id="Shape" fill="#2A3890" fill-rule="nonzero" mask="url(#mask-2)"></path>
                            </g>
                        </g>
                    </g>
                    <path d="M77.2321449,71.2272834 C77.2321449,71.2272834 91.1802748,52.4838883 106.173853,37.2088947 C121.166107,21.9352243 136.555368,11.3368163 136.555368,11.3368163 C136.555368,11.3368163 140.02652,65.2247389 114.540084,71.3344717 C99.6179671,74.9127081 77.2321449,71.2272834 77.2321449,71.2272834" id="Shape" fill="#FEFEFD" fill-rule="nonzero"></path>
                    <g id="Group" transform="translate(100.707086, 11.248154)" opacity="0.399994">
                        <g id="Clipped">
                            <g>
                                <mask id="mask-4" fill="white">
                                    <use xlink:href="#path-3"></use>
                                </mask>
                                <g id="Rectangle-path"></g>
                                <path d="M35.8482818,0.0886619227 C35.8482818,0.0886619227 39.3194341,53.9765846 13.8329983,60.0863173 C9.62209225,61.0960046 4.81567786,61.5274044 0.0860178787,61.6266528 C6.18534716,61.7457509 12.798137,61.4228628 18.3707722,60.0863173 C43.8558846,53.9765846 35.8482818,0.0886619227 35.8482818,0.0886619227" id="Shape" fill="#2A3890" fill-rule="nonzero" mask="url(#mask-4)"></path>
                            </g>
                        </g>
                    </g>
                    <g id="Group" transform="translate(77.151420, 11.248154)">
                        <g id="Clipped">
                            <mask id="mask-6" fill="white">
                                <use xlink:href="#path-5"></use>
                            </mask>
                            <g id="Shape"></g>
                            <g id="Group" mask="url(#mask-6)" fill-rule="nonzero">
                                <g transform="translate(13.895196, 32.024157)" id="Shape">
                                    <path d="M11.0076418,9.75413481 C11.0076418,15.1056097 8.54488374,19.4434273 5.50779094,19.4434273 C2.4693748,19.4434273 0.0066167599,15.1056097 0.0066167599,9.75413481 C0.0066167599,4.40398327 2.4693748,0.066165614 5.50779094,0.066165614 C8.54488374,0.066165614 11.0076418,4.40398327 11.0076418,9.75413481" fill="#403F41"></path>
                                    <path d="M10.0839421,7.84327188 C10.0839421,9.1599676 10.7006241,10.2278806 11.4602282,10.2278806 C12.2211555,10.2278806 12.8378376,9.1599676 12.8378376,7.84327188 C12.8378376,6.52525285 12.2211555,5.45733984 11.4602282,5.45733984 C10.7006241,5.45733984 10.0839421,6.52525285 10.0839421,7.84327188" fill="#FFFFFF"></path>
                                </g>
                            </g>
                        </g>
                    </g>
                    <g id="Group" transform="translate(51.213722, 70.797207)" fill-rule="nonzero" fill="#0086CC" opacity="0.899994">
                        <g id="Shape">
                            <path d="M17.7097579,3.21035559 C23.8812098,3.21035559 29.8018866,3.78864306 35.2911506,4.85126282 C30.2624131,1.86587031 24.2041077,0.12174473 17.6856729,0.12174473 C11.1563865,0.12174473 5.09027339,1.86984025 0.056110124,4.86449594 C5.56641544,3.7939363 11.5109125,3.21035559 17.7097579,3.21035559"></path>
                        </g>
                    </g>
                    <path d="M135.632991,0.120156755 C136.609625,1.66565317 135.868548,6.38365843 135.615788,8.34613054 C134.788693,12.6164593 119.863929,20.3049036 105.307057,35.1352643 C91.0479396,49.6625865 78.6997423,67.8051979 76.6339899,67.297046 C74.8580515,67.8051979 77.9533718,55.7127703 83.5471806,45.5603185 L83.5445339,45.5642884 C77.4041807,54.6514738 71.134139,65.3345738 72.8055326,68.9564796 C72.8055326,68.9564796 73.8139268,71.4866526 77.2321449,71.2272834 C78.961766,68.9260434 92.211166,51.4331784 106.173853,37.2088947 C119.036834,24.1041332 136.558014,11.2481544 136.555368,11.3368163 C138.547012,9.97380465 136.75784,0.773211365 135.632991,0.120156755" id="Shape" fill="#1375BC" fill-rule="nonzero"></path>
                    <path d="M60.5474555,71.212727 C60.5474555,71.212727 46.6308214,52.4468356 31.6637105,37.146699 C16.6965996,21.8478857 1.32494,11.2243348 1.32494,11.2243348 C1.32494,11.2243348 -2.23606784,65.1056408 23.2392518,71.2577196 C38.1562077,74.8610989 60.5474555,71.212727 60.5474555,71.212727" id="Shape" fill="#FEFEFD" fill-rule="nonzero"></path>
                    <g id="Group" transform="translate(0.000000, 11.115823)" opacity="0.399994">
                        <g id="Clipped">
                            <g>
                                <mask id="mask-8" fill="white">
                                    <use xlink:href="#path-7"></use>
                                </mask>
                                <g id="Rectangle-path"></g>
                                <path d="M1.32494,0.108511607 C1.32494,0.108511607 -2.23606784,53.9898177 23.2392518,60.1418965 C27.4493638,61.1595236 32.2549842,61.5988633 36.9843795,61.7047283 C30.8847855,61.8145632 24.272525,61.4797652 18.7022719,60.1339566 C-6.77304777,53.9818778 1.32494,0.108511607 1.32494,0.108511607" id="Shape" fill="#2A3890" fill-rule="nonzero" mask="url(#mask-8)"></path>
                            </g>
                        </g>
                    </g>
                    <g id="Group" transform="translate(1.058682, 11.115823)">
                        <g id="Clipped">
                            <mask id="mask-10" fill="white">
                                <use xlink:href="#path-9"></use>
                            </mask>
                            <g id="Shape"></g>
                            <g id="Group" mask="url(#mask-10)" fill-rule="nonzero">
                                <g transform="translate(32.819129, 32.156488)" id="Shape">
                                    <path d="M1.8783658,9.69855569 C1.86936701,15.0500306 4.32471427,19.3918181 7.36246874,19.3971114 C10.4000909,19.4024046 12.869995,15.0685569 12.8788615,9.71708207 C12.8878603,4.36693052 10.4326453,0.0251429333 7.39489087,0.0198496842 C4.3571364,0.0145564351 1.88736459,4.34840415 1.8783658,9.69855569" fill="#403F41"></path>
                                    <path d="M2.80563853,7.78901608 C2.80338884,9.10703511 2.18511879,10.1736248 1.42472074,10.1723015 C0.664322694,10.1709782 0.0496256993,9.10174186 0.0518753976,7.78504614 C0.0539927608,6.46702711 0.672262806,5.40043741 1.43266085,5.40176072 C2.19319124,5.40308404 2.80788823,6.47099705 2.80563853,7.78901608" fill="#FFFFFF"></path>
                                </g>
                            </g>
                        </g>
                    </g>
                    <path d="M2.2663726,0.00846919859 C1.28748914,1.55237763 2.02036147,6.27117689 2.26901931,8.233649 C3.08923286,12.505301 18.0008953,20.2202116 32.5328881,35.074392 C46.768053,49.6255338 59.0860779,67.7879948 61.1526244,67.2851361 C62.9279011,67.7946114 59.8532251,55.6968905 54.2751641,45.5351755 C54.2762228,45.5364988 54.2771492,45.5378222 54.2782078,45.5391455 C60.4033425,54.6369174 66.6555189,65.3306039 64.9785673,68.949863 C64.9785673,68.949863 63.9648797,71.4773894 60.5474555,71.212727 C58.8225985,68.9088403 45.6021799,51.3948023 31.6637105,37.146699 C18.8224322,24.0207645 1.3226903,11.1343495 1.32494,11.2243348 C-0.664587365,9.85735317 1.1403324,0.65953884 2.2663726,0.00846919859" id="Shape" fill="#1375BC" fill-rule="nonzero"></path>
                </g>
                <g id="crown" transform="translate(84.401777, 51.494738)" fill-rule="nonzero">
                    <path d="M43.4963299,31.8946049 C23.8333045,31.8946049 7.27525985,26.7483758 2.29972107,19.7431575 L3.97759905,48.4054399 C3.97759905,57.194483 20.7440716,63.9703712 43.4963299,63.9703712 C66.2483235,63.9703712 83.0151931,57.194483 83.0151931,48.4054399 L84.6932034,19.7431575 C79.7174,26.7483758 63.15962,31.8946049 43.4963299,31.8946049" id="Shape" fill="#D1D3D4"></path>
                    <path d="M43.4963299,33.2179172 C19.5523932,33.2179172 0.141995668,25.8071037 0.141598662,16.6653979 L1.90734721,49.7707011 C1.90734721,58.9125394 19.5521285,66.3234851 43.4963299,66.3234851 C67.4406636,66.3234851 85.0849156,58.9125394 85.0849156,49.7707011 L86.8515905,16.6651332 C86.8515905,25.8069714 67.4406636,33.2179172 43.4963299,33.2179172" id="Shape" fill="#E6E7E8"></path>
                    <path d="M43.4963299,31.8946049 C23.8333045,31.8946049 7.27525985,26.7483758 2.29972107,19.7431575 L3.97759905,48.4054399 C3.97759905,57.194483 20.7440716,63.9703712 43.4963299,63.9703712 C66.2483235,63.9703712 83.0151931,57.194483 83.0151931,48.4054399 L84.6932034,19.7431575 C79.7174,26.7483758 63.15962,31.8946049 43.4963299,31.8946049" id="Shape" fill="#D1D3D4"></path>
                    <g id="Group" transform="translate(13.895196, 26.466246)" fill="#BBBDC0" opacity="0.399994">
                        <g id="Shape">
                            <path d="M2.28834025,33.3904771 C9.24837765,35.9596879 18.7419724,37.5039933 29.6011341,37.5039933 C40.4350198,37.5039933 49.9088966,35.9669661 56.8644346,33.4086065 L59.1300132,0.130610922 C51.1184403,2.70643827 39.9665532,5.4283593 29.6011341,5.4283593 C19.2133504,5.4283593 8.04240699,2.69968938 0.0228939893,0.113672525 L2.28834025,33.3904771 Z"></path>
                        </g>
                    </g>
                    <g id="Group" transform="translate(35.068827, 31.494832)" fill="#BBBDC0" opacity="0.399994">
                        <g id="Shape">
                            <path d="M0.0505520457,32.1551651 C2.73126615,32.3650424 5.5305526,32.475539 8.42750242,32.475539 C11.3067193,32.475539 14.0897285,32.366498 16.7549594,32.159135 L16.7549594,0.0846919859 C14.0619381,0.29099637 11.2776056,0.39977264 8.42750242,0.39977264 C5.56019568,0.39977264 2.75958589,0.289540727 0.0505520457,0.0808543803 L0.0505520457,32.1551651 Z"></path>
                        </g>
                    </g>
                    <path d="M86.8410037,16.6650009 C86.8410037,25.8068391 67.4300768,33.2177848 43.4861401,33.2177848 C19.542071,33.2177848 0.131541187,25.8068391 0.131541187,16.6650009 C0.131541187,7.52316264 19.542071,0.112216881 43.4861401,0.112216881 C67.4300768,0.112216881 86.8410037,7.52316264 86.8410037,16.6650009" id="Shape" fill="#E6E7E8"></path>
                    <g id="Group" transform="translate(0.000000, 4.366931)" fill="#D1D3D4" opacity="0.399994">
                        <g id="Shape">
                            <path d="M81.0354585,4.01889939 C81.5528892,4.94932026 81.8281464,5.91414724 81.8281464,6.9034555 C81.8281464,14.5248079 65.6461984,20.7030883 45.6847571,20.7030883 C25.7230511,20.7030883 9.54097078,14.5248079 9.54097078,6.9034555 C9.54097078,4.41377578 11.2687391,2.07826193 14.2902164,0.061534021 C5.59102978,3.08887552 0.131541187,7.44998347 0.131541187,12.2982027 C0.131541187,21.4400409 19.542071,28.8509866 43.4861401,28.8509866 C67.4300768,28.8509866 86.8410037,21.4400409 86.8410037,12.2982027 C86.8410037,9.28184466 84.7262872,6.45432331 81.0354585,4.01889939"></path>
                        </g>
                    </g>
                    <path d="M43.4861401,30.9693449 C20.7395722,30.9693449 2.29972107,24.5650428 2.29972107,16.6650009 C2.29972107,8.76495888 20.7395722,2.36065677 43.4861401,2.36065677 C66.2324433,2.36065677 84.6720298,8.76495888 84.6720298,16.6650009 C84.6720298,24.5650428 66.2324433,30.9693449 43.4861401,30.9693449 M43.4861401,0.112216881 C19.5419387,0.112216881 0.131408852,7.52316264 0.131408852,16.6650009 C0.131408852,25.8068391 19.5419387,33.2177848 43.4861401,33.2177848 C67.4300768,33.2177848 86.8410037,25.8068391 86.8410037,16.6650009 C86.8410037,7.52316264 67.4300768,0.112216881 43.4861401,0.112216881" id="Shape" fill="#E6E7E8"></path>
                    <path d="M68.2558485,5.86875763 C68.2558485,6.746246 66.1080482,7.45765868 63.4586975,7.45765868 C60.8093469,7.45765868 58.6615466,6.746246 58.6615466,5.86875763 C58.6615466,4.99113692 60.8093469,4.27985657 63.4586975,4.27985657 C66.1080482,4.27985657 68.2558485,4.99113692 68.2558485,5.86875763" id="Shape" fill="#F1F2F2"></path>
                </g>
                <g id="Mecha" transform="translate(121.750000, 25.750000)" fill-rule="nonzero">
                    <path d="M2.96147297,38.5642311 L2.95869393,38.5797139 L2.95379752,38.5930793 C2.95353285,38.5940056 2.94929813,38.6084297 2.94215203,38.6330433 C2.93553527,38.6584509 2.92719815,38.695636 2.92058139,38.7435399 C2.90681853,38.8394801 2.89967243,38.9790895 2.92746282,39.1538991 C2.98794,39.5028565 3.1860458,39.9955257 3.63267709,40.5495965 C3.84428107,40.8192876 4.07917605,41.0856703 4.32995125,41.3455689 C4.43568707,41.4567271 4.55770012,41.584956 4.69771076,41.731976 C4.82184118,41.8591463 4.94266322,41.9851257 5.05633915,42.1096494 C4.82369387,41.7931131 4.53480614,41.2530693 4.52196962,40.5937951 C4.50106066,40.1097275 4.63273418,39.5536717 4.93181173,38.9947046 C5.23009527,38.4354728 5.70028222,37.8750501 6.25754574,37.376029 C6.53690535,37.12632 6.83161583,36.8914321 7.13122272,36.6774525 C7.2807615,36.5703965 7.43413799,36.4686338 7.56329714,36.3717673 C7.69298564,36.2749009 7.8041472,36.1829307 7.89942855,36.0965184 C8.08602118,35.9234291 8.22232643,35.7727038 8.35730833,35.6516208 C8.49096688,35.5305377 8.60742186,35.4385675 8.67888286,35.3792831 L8.91973292,35.1811833 L8.92105628,35.1814479 C8.96340354,35.1458508 8.99384063,35.1213695 9.0057508,35.1106507 C9.30747505,34.8174047 9.67404355,34.3562304 9.72830098,33.7713264 C9.7746183,33.2787895 9.59331908,32.7624331 9.19366678,32.2137878 C8.80592465,32.4902277 8.14954207,32.9748247 7.38689432,33.5795784 C6.62504059,34.1832735 5.76658216,34.9101689 4.95867577,35.635344 C4.75540891,35.8163732 4.53798218,35.9963436 4.3504632,36.1745938 C4.16082687,36.3527116 4.00970007,36.5292415 3.87273314,36.7000811 C3.60065197,37.042025 3.40611923,37.3618696 3.27378403,37.6363245 C3.13694944,37.9106472 3.06826747,38.1395802 3.02181782,38.300892 C2.97735319,38.4623361 2.96319332,38.5566882 2.96147297,38.5642311 M1.84244653,33.5140745 C2.1998839,33.1946269 2.78255578,32.6823727 3.48737304,32.1040852 C4.18927893,31.5248714 5.01399189,30.881477 5.84214556,30.2785759 L6.77484403,30.421229 C5.66349304,31.2137607 4.50370736,32.1293605 3.62619267,32.871871 C3.18538412,33.2418691 2.81815395,33.5663453 2.55427756,33.7997776 C2.29291554,34.0351948 2.13689235,34.1757306 2.12670254,34.1847291 L2.11082231,34.1992855 L2.09335407,34.2115924 C2.09189838,34.2125187 2.07456247,34.2258841 2.04465471,34.2486451 C2.01461462,34.2723324 1.97226736,34.3070032 1.92158298,34.3523928 C1.82008188,34.4429073 1.68390896,34.5756356 1.54892706,34.7466075 C1.4810391,34.8319612 1.41275414,34.9268426 1.3479099,35.0305903 C1.27803691,35.1474388 1.21001662,35.2607143 1.14689273,35.3661823 C1.00330904,35.6051725 0.797660141,35.8739372 0.907498356,36.1775051 C1.17746216,36.770349 1.75894302,37.3665012 2.39957771,37.9310262 C2.50200516,37.5479273 2.71903488,36.894608 3.35821389,36.1658599 C3.53077899,35.9844338 3.76368894,35.8004934 3.98138034,35.6136417 C4.20158611,35.4269224 4.40802902,35.2371594 4.62135335,35.0477934 C5.04641401,34.6689291 5.48536986,34.2912558 5.91850297,33.9319765 C6.7818578,33.2120946 7.62020128,32.5683032 8.26070364,32.099189 C8.89988264,31.6292808 9.34188221,31.3298152 9.4054031,31.2832346 C9.53376824,31.1761786 9.67404355,31.0422594 9.8050554,30.8847853 L10.5130487,30.9932969 C10.3079292,31.303349 10.0604623,31.553852 9.83681585,31.7371307 L9.83416914,31.7347488 C9.80637875,31.7543338 9.75609138,31.7896662 9.68860042,31.8374378 C10.2047077,32.5267512 10.4336476,33.185099 10.3740968,33.8316694 C10.3039591,34.5879424 9.84475596,35.1667592 9.4715707,35.5308024 L9.468924,35.5285527 C9.44510366,35.5491964 9.4027564,35.5854552 9.34452891,35.6341531 C9.48877427,35.7954648 9.66742679,35.9588939 9.81167216,36.1206026 C9.95591752,36.2823114 10.0353186,36.4409766 10.0009115,36.5969951 C9.91489361,36.9083704 9.72962434,37.2227894 9.46495394,37.5448837 C9.15661293,37.9246743 8.78607437,38.2729701 8.45391303,38.5785229 C8.30172755,38.7133684 8.14027861,38.8572124 7.97750631,39.0021151 C7.84120106,39.1194929 7.70357245,39.2375324 7.57414863,39.348823 L7.57414863,39.3467057 C7.54754925,39.368408 7.50361397,39.4046667 7.44406313,39.4537616 C7.41825777,39.6113681 7.36995542,39.7717536 7.30511117,39.9347856 C7.24211962,40.09795 7.14498558,40.2642904 7.04269047,40.4338067 C6.93721932,40.6031907 6.82288171,40.7757506 6.69226687,40.9518834 C6.55807898,41.128281 6.41568631,41.3077221 6.26985292,41.4908685 C5.968261,41.86219 5.67632955,42.2098241 5.42793639,42.530595 C5.62511583,42.2275565 5.88211079,41.878202 6.14744286,41.4999994 C6.5314796,40.9488398 6.8551715,40.4181916 6.93920435,39.9073931 C6.32133131,40.4919001 5.51607163,41.4874279 5.42793639,42.530595 C5.34959395,41.7927161 5.67249183,41.0388251 6.08842136,40.4437315 C6.50898262,39.846256 6.99385879,39.4036081 7.198052,39.2262842 C7.198052,39.2262842 7.26302858,39.1707051 7.32787283,39.1149937 L7.46060503,39.0043648 L7.46139904,39.0148189 C7.50176128,38.9816038 7.52941933,38.9588428 7.54225585,38.948124 C7.72209938,38.7866799 7.96030274,38.5794492 8.2011528,38.3403267 C8.44464956,38.1008071 8.70402655,37.8296605 8.90782276,37.5358851 C9.08250522,37.2889551 9.2016069,37.0426866 9.25057092,36.7958889 C9.27439125,36.6722915 9.29424153,36.5492235 9.2399841,36.4233765 C9.19102008,36.2975295 9.07985851,36.1691682 8.94090655,36.0386896 C8.81121806,36.1744615 8.62859549,36.330877 8.35598498,36.5044955 C8.21703302,36.5920988 8.07014095,36.6838044 7.91927883,36.7793475 C7.7710634,36.8756846 7.62284798,36.976918 7.47582358,37.0822537 C6.88309422,37.503464 6.31497922,37.9942805 5.873906,38.5132836 C5.42806872,39.0318897 5.116287,39.577359 4.96171948,40.0954357 C4.80635796,40.6135125 4.80794598,41.102741 4.91143211,41.5112475 C5.03040145,41.9999468 5.2843527,42.3609464 5.42793639,42.530595 L5.42237831,42.5254341 C5.1095379,42.2294091 4.76004064,41.9143285 4.40763201,41.5866763 C4.20436515,41.3934728 4.03153538,41.2291174 3.87895289,41.0840823 C3.70982851,40.9131104 3.54348317,40.7383008 3.38454859,40.560977 C3.27960678,40.4433345 3.17942904,40.3278094 3.08864709,40.2154602 C3.00209987,40.1029786 2.92322809,39.993276 2.85123775,39.8868817 C2.70937441,39.6743578 2.59543381,39.47467 2.51285664,39.2920529 C2.34743765,38.9262893 2.31329516,38.6277501 2.32189695,38.4169464 C2.11373369,38.2420046 1.90768778,38.0630927 1.70561194,37.8803433 C1.50644746,37.6975939 1.3174728,37.5112715 1.13537957,37.3215085 C0.951565977,37.1317456 0.788264342,36.939336 0.636078865,36.7440151 C0.560250796,36.6464869 0.487598772,36.5481648 0.420504827,36.4494457 C0.354072558,36.350859 0.285258255,36.2513459 0.24899841,36.1526268 C0.199505046,36.0221482 0.198049359,35.8965659 0.236294231,35.7772031 C0.27215707,35.6575757 0.33885401,35.5435062 0.398537184,35.4336712 C0.527828673,35.2142661 0.601539378,35.0098143 0.703966821,34.8260062 C0.902469618,34.4578608 1.15178913,34.1709667 1.35174762,33.9716758 C0.814863717,33.2151382 0.581689098,32.4243268 0.67313272,31.6512478 C0.782309258,30.7171216 1.3223692,30.0385271 1.74690052,29.6521199 L2.6777463,29.7945083 C2.5262225,29.9121508 2.43782259,29.9806983 2.42948547,29.9873149 L2.16812345,30.1940163 L2.15806598,30.1797245 C1.82339026,30.4913645 1.39806494,31.0238654 1.3174728,31.7254856 C1.2513052,32.3027144 1.42559066,32.9098501 1.84244653,33.5140745" id="Shape" fill="#A87B50"></path>
                    <path d="M6.93933668,39.9073931 C6.32133131,40.4919001 5.51620396,41.4872956 5.42780405,42.530595 C5.62511583,42.2274242 5.88197845,41.878202 6.14744286,41.4999994 C6.53161194,40.9488398 6.8551715,40.4180593 6.93933668,39.9073931" id="Shape" fill="#FFDD18"></path>
                    <path d="M7.46047269,39.0043648 L7.46139904,39.0148189 C7.50176128,38.9814715 7.529287,38.9588428 7.54238818,38.948124 C7.72209938,38.7865476 7.96030274,38.5793169 8.2011528,38.3403267 C8.44597291,38.1008071 8.70402655,37.8296605 8.90782276,37.5357528 C9.08250522,37.2889551 9.2016069,37.0426866 9.25057092,36.7958889 C9.27439125,36.6722915 9.29424153,36.5492235 9.2399841,36.4232442 C9.19102008,36.2975295 9.07985851,36.1691682 8.94090655,36.0386896 C8.81121806,36.1744615 8.62859549,36.330877 8.35598498,36.5044955 C8.21703302,36.5920988 8.07014095,36.6838044 7.91927883,36.7793475 C7.7710634,36.8756846 7.62284798,36.9767857 7.47569124,37.0822537 C6.88322656,37.5033316 6.31497922,37.9942805 5.87377367,38.5132836 C5.42806872,39.0318897 5.11615466,39.577359 4.96171948,40.0954357 C4.80622563,40.6135125 4.80794598,41.102741 4.91143211,41.5112475 C5.03026912,41.9999468 5.2843527,42.3609464 5.42780405,42.530595 C5.34946161,41.7927161 5.67249183,41.0388251 6.08828903,40.4437315 C6.50911496,39.846256 6.99372645,39.4034757 7.198052,39.2262842 C7.198052,39.2262842 7.26289624,39.1705728 7.32774049,39.1149937 L7.46047269,39.0043648 Z" id="Shape" fill="#FFDD18"></path>
                    <path d="M9.00707415,35.1105184 C9.30747505,34.8172724 9.67404355,34.3562304 9.72830098,33.7713264 C9.7746183,33.2786572 9.59331908,32.7624331 9.19234343,32.2136555 C8.80592465,32.4902277 8.14954207,32.9748247 7.38676199,33.5794461 C6.62517292,34.1832735 5.76658216,34.9100366 4.95880811,35.635344 C4.75540891,35.8162408 4.53798218,35.9962113 4.35059554,36.1744615 C4.16082687,36.3525793 4.00970007,36.5291091 3.87286547,36.7000811 C3.60065197,37.0418927 3.40611923,37.3618696 3.27391637,37.6361922 C3.13694944,37.9105148 3.06839981,38.1394479 3.02195015,38.3007596 C2.97748552,38.4622037 2.96319332,38.5566882 2.96147297,38.5640988 L2.95869393,38.5795815 L2.95379752,38.592947 C2.95353285,38.5940056 2.94929813,38.6084297 2.94215203,38.632911 C2.93553527,38.6583186 2.92733048,38.6955037 2.92058139,38.7435399 C2.90695086,38.8394801 2.89967243,38.9789572 2.92746282,39.1538991 C2.98794,39.5027242 3.18617813,39.9955257 3.63267709,40.5494642 C3.84428107,40.8191552 4.07904371,41.0856703 4.32995125,41.3454365 C4.43581941,41.4567271 4.55783246,41.5848237 4.69771076,41.731976 C4.82184118,41.859014 4.94279555,41.9849933 5.05620682,42.1096494 C4.82369387,41.7929807 4.5346738,41.252937 4.52196962,40.5936628 C4.50119299,40.1097275 4.63273418,39.5535394 4.93194406,38.9945723 C5.23009527,38.4353405 5.70028222,37.8750501 6.25754574,37.3758967 C6.53690535,37.1261876 6.83174817,36.8914321 7.13122272,36.6773201 C7.2807615,36.5702642 7.43413799,36.4686338 7.56329714,36.371635 C7.69298564,36.2747685 7.8041472,36.1829307 7.89942855,36.096386 C8.08602118,35.9232968 8.22232643,35.7727038 8.35730833,35.6516208 C8.49096688,35.5305377 8.60742186,35.4385675 8.67888286,35.3791508 L8.91973292,35.1810509 L8.92105628,35.1814479 C8.96340354,35.1457185 8.99384063,35.1212372 9.00707415,35.1105184" id="Shape" fill="#FFDD18"></path>
                    <path d="M2.16812345,30.1940163 L2.15806598,30.1797245 C1.82339026,30.4913645 1.3979326,31.0238654 1.31734046,31.7254856 C1.25143754,32.3027144 1.42545832,32.9099824 1.84244653,33.5140745 C2.1998839,33.1946269 2.78255578,32.6823727 3.48724071,32.1040852 C4.1891466,31.5248714 5.01399189,30.881477 5.84201322,30.2785759 L2.6777463,29.7945083 C2.5262225,29.9121508 2.43769025,29.9808307 2.42935313,29.9873149 L2.16812345,30.1940163 Z" id="Shape" fill="#FFDD18"></path>
                    <path d="M2.11082231,34.1992855 L2.09322173,34.2115924 C2.09203071,34.2125187 2.07443013,34.2258841 2.04452238,34.2486451 C2.01461462,34.2723324 1.97226736,34.3070032 1.92145064,34.3522604 C1.82008188,34.4429073 1.68377663,34.5756356 1.54892706,34.7466075 C1.4810391,34.8319612 1.41275414,34.9268426 1.34777756,35.0305903 C1.27790458,35.1474388 1.21014895,35.2607143 1.14689273,35.3661823 C1.00344137,35.6051725 0.797792477,35.8739372 0.907366021,36.1775051 C1.17746216,36.770349 1.75894302,37.3665012 2.39944538,37.9310262 C2.50187282,37.5479273 2.71890255,36.894608 3.35808155,36.1658599 C3.53077899,35.9844338 3.7635566,35.8003611 3.98151267,35.6136417 C4.20158611,35.4269224 4.40789668,35.2371594 4.62122102,35.0477934 C5.04641401,34.6689291 5.48536986,34.2912558 5.91837063,33.9318441 C6.78172546,33.2120946 7.62020128,32.5683032 8.26070364,32.099189 C8.89988264,31.6292808 9.34188221,31.3298152 9.4054031,31.2832346 C9.53376824,31.1761786 9.67404355,31.0422594 9.8050554,30.8847853 L6.77484403,30.421229 C5.66349304,31.2137607 4.50357503,32.1293605 3.62606033,32.871871 C3.18538412,33.2418691 2.81802161,33.5663453 2.55427756,33.7997776 C2.29291554,34.0351948 2.13676001,34.1757306 2.12683487,34.1847291 L2.11082231,34.1992855 Z" id="Shape" fill="#FFDD18"></path>
                    <path d="M3.42716053,25.624619 L3.40903061,25.6365288 L3.38957733,25.6459243 C3.38825398,25.6467183 3.36866837,25.6571725 3.3353199,25.6751695 C3.30197143,25.6939605 3.25433076,25.7218824 3.19689728,25.7589352 C3.08335368,25.8333053 2.93010952,25.9444636 2.76892525,26.0930715 C2.44443935,26.3893611 2.09626544,26.8396843 1.97981047,27.4278966 C1.86944291,28.0006262 1.99807272,28.6216566 2.36596457,29.2565819 C2.7559564,28.9584396 3.39394439,28.4770186 4.16069453,27.9401508 C5.28752874,27.1447078 6.7438776,26.2141546 8.01323682,25.5011539 C9.28100801,24.7812721 10.3582165,24.2672976 10.6917012,24.1083678 L10.9748985,23.9770952 L10.9748985,23.9773598 C11.0251859,23.9538049 11.0595931,23.9375281 11.0754733,23.9305146 C11.2567725,23.8271639 11.4605687,23.6853048 11.645838,23.5036141 C11.833754,23.3227173 11.9965263,23.0996068 12.0918076,22.8266075 C12.1751788,22.5988654 12.2029692,22.3507444 12.1778255,22.0807887 C12.1540052,21.8117593 12.0812208,21.5234096 11.9528557,21.2101815 C11.7331792,21.2935502 11.4341017,21.4086784 11.0767967,21.5514638 C10.724785,21.6961018 10.3158693,21.8695881 9.86989965,22.0651736 C8.98987058,22.4597853 7.97088955,22.9524545 7.02336953,23.4682816 C6.06857108,23.9801388 5.1806019,24.5117133 4.52316064,24.9210138 C4.1917933,25.1248039 3.92751991,25.2993488 3.73642789,25.4224169 C3.54652688,25.5465435 3.43602699,25.6187964 3.42716053,25.624619 M4.51111813,20.6456565 C4.9343261,20.4181791 5.63279127,20.0596938 6.4577689,19.6694491 C7.28751059,19.2797336 8.24614677,18.8613022 9.2042536,18.4944801 L10.0684024,18.8738737 C8.79269113,19.3473548 7.43175596,19.9429777 6.40033542,20.4535116 C5.87814073,20.7052056 5.4456693,20.9344033 5.13124087,21.0987586 C4.81707711,21.263511 4.63127849,21.3658031 4.62029467,21.3722873 L4.6012384,21.3827415 L4.58125579,21.390549 C4.5798001,21.3912107 4.55968515,21.4000769 4.52514567,21.4151626 C4.49047384,21.4311747 4.44098048,21.4551266 4.3809003,21.4874155 C4.26073994,21.5519931 4.09757064,21.6499182 3.92288818,21.7848961 C3.7470147,21.9194769 3.56425979,22.0920368 3.40386953,22.3038991 C3.24400861,22.5154968 3.09976325,22.7654705 3.0210238,23.0559375 C2.8601042,23.6203302 2.93778496,24.2537998 3.25049304,24.9190289 C3.70281474,24.6273708 4.46996189,24.1414506 5.38069272,23.6164926 C6.29433493,23.0910053 7.34520874,22.5285976 8.36127839,22.0458532 C9.3723193,21.5586097 10.3476297,21.1510295 11.0807667,20.8642677 C11.8152271,20.5773736 12.3167775,20.4082543 12.3882385,20.3798031 C12.5377772,20.3105939 12.709813,20.2219319 12.8739086,20.1065391 L13.5302912,20.3950212 C13.2537107,20.6325557 12.9546331,20.806042 12.6939328,20.9224935 L12.6912861,20.9197145 C12.6595256,20.9312273 12.6026215,20.951871 12.5258671,20.9799252 C12.8500883,21.7646494 12.9189026,22.4466845 12.7031962,23.043763 C12.5827712,23.3965581 12.3697115,23.6781589 12.1394483,23.9093416 C11.9105084,24.1403919 11.6498081,24.3152015 11.4261616,24.4440921 L11.4235149,24.4414455 C11.3957245,24.4553402 11.3454371,24.4796892 11.2779462,24.5126397 C11.6696583,25.2641487 11.7874367,25.9359944 11.6299578,26.5542459 C11.4407184,27.2799503 10.9021142,27.7756631 10.4759949,28.0745993 L10.4746715,28.072085 C10.4482045,28.0873031 10.4058572,28.1128431 10.3476297,28.1473815 C10.7949227,28.8626318 10.9656351,29.5241556 10.8584436,30.1540522 C10.8028628,30.4723088 10.6811144,30.7521894 10.5276056,30.9954142 L9.82358233,30.8878289 C10.0075283,30.6561169 10.1610371,30.3745161 10.2192646,30.044085 C10.2602885,29.8024482 10.247055,29.5516805 10.179564,29.2895323 C10.1107497,29.0268548 9.98900132,28.7535909 9.81431886,28.4680201 C9.12352913,28.8832755 8.00662006,29.5945558 6.83849726,30.4310215 L5.90765148,30.2886331 C6.75155304,29.6699846 7.6029977,29.1005633 8.28849403,28.6602973 C8.97928376,28.2205607 9.50597785,27.906671 9.72300758,27.7814857 L9.99297138,27.6248055 L10.0009115,27.6372446 C10.0419354,27.6136897 10.0684024,27.5976776 10.081636,27.5900024 C10.251025,27.469581 10.4468811,27.3103865 10.6162702,27.1117573 C10.7856592,26.9125988 10.9272579,26.6734763 11.0026889,26.3922724 C11.123114,25.917468 11.0278326,25.3857611 10.7194916,24.7837864 C9.97709116,25.1475649 8.76093069,25.7802405 7.5010996,26.542336 C6.23862181,27.2980797 4.93287041,28.1828463 3.97304322,28.8839371 C3.39950247,29.3009128 2.96332566,29.6386221 2.74788396,29.8052271 L1.8257723,29.664162 L1.83199205,29.6588688 C1.35757036,28.867925 1.19797412,28.0663948 1.34327816,27.3042992 C1.54336898,26.291436 2.22899764,25.6255453 2.69309718,25.2944526 C2.48678661,24.8765505 2.35789213,24.4618245 2.31051613,24.0571556 C2.25837606,23.651825 2.29132752,23.257478 2.39719568,22.8790107 C2.53813267,22.3790633 2.79949468,21.974659 3.08216267,21.660637 C3.36946238,21.3471444 3.67581836,21.1231076 3.92037381,20.9759553 C3.58715378,20.1029662 3.56081908,19.2655741 3.84811879,18.5254456 C3.93506302,18.3025998 4.04331321,18.1011917 4.16439992,17.9205595 C4.28694231,17.7403244 4.42629127,17.5820563 4.56749293,17.4427115 C4.70922393,17.3033667 4.85505731,17.1836069 4.99705298,17.0814472 C5.14129835,16.9799492 5.2825,16.8965805 5.41086515,16.8284299 L6.2731613,17.2071619 C6.09543513,17.2833847 5.991552,17.327848 5.98175919,17.3320826 L5.67368285,17.4677221 L5.66759543,17.4510484 C5.26542876,17.6724385 4.70962093,18.0874292 4.45315532,18.7587455 C4.34318477,19.0333328 4.29924948,19.3330631 4.3075866,19.6488054 C4.31460037,19.964283 4.38275299,20.2981547 4.51111813,20.6456565" id="Shape" fill="#A87B50"></path>
                    <path d="M9.81431886,28.4678877 C9.12352913,28.8831431 8.00662006,29.5945558 6.83849726,30.4308892 L9.82490568,30.8876966 C10.0075283,30.6559846 10.1610371,30.3743837 10.2192646,30.0439527 C10.2602885,29.8023158 10.247055,29.5515482 10.179564,29.2894 C10.1107497,29.0267225 9.98900132,28.7534585 9.81431886,28.4678877" id="Shape" fill="#FFDD18"></path>
                    <path d="M9.99297138,27.6248055 L10.0009115,27.6372446 C10.0419354,27.6136897 10.0697258,27.5975453 10.081636,27.5900024 C10.251025,27.4694486 10.4468811,27.3103865 10.6162702,27.1117573 C10.7856592,26.9124665 10.9272579,26.673344 11.0026889,26.3922724 C11.123114,25.9173357 11.0278326,25.3856288 10.7194916,24.783654 C9.97841451,25.1474326 8.76093069,25.7801082 7.50123194,26.5422037 C6.23862181,27.2980797 4.93287041,28.1828463 3.97317555,28.8839371 C3.39963481,29.3007805 2.96332566,29.6386221 2.74788396,29.8052271 L5.90765148,30.2886331 C6.75168537,29.6699846 7.6029977,29.100431 8.28849403,28.6602973 C8.97928376,28.2205607 9.50597785,27.906671 9.72300758,27.7814857 L9.99297138,27.6248055 Z" id="Shape" fill="#FFDD18"></path>
                    <path d="M11.0754733,23.9303823 C11.2567725,23.8270316 11.4605687,23.6851725 11.645838,23.5036141 C11.833754,23.3225849 11.9965263,23.0994745 12.0918076,22.8266075 C12.1751788,22.5987331 12.2042925,22.3507444 12.1778255,22.0807887 C12.1540052,21.811627 12.0812208,21.5232772 11.9528557,21.2101815 C11.7331792,21.2934179 11.435425,21.4086784 11.0767967,21.5513314 C10.724785,21.6959695 10.3158693,21.8695881 9.86989965,22.0651736 C8.98987058,22.4597853 7.97088955,22.9523222 7.02336953,23.4681493 C6.06870342,23.9801388 5.18073424,24.511581 4.52316064,24.9208815 C4.19192564,25.1248039 3.92751991,25.2992165 3.73656022,25.4222845 C3.54665921,25.5465435 3.43615932,25.6187964 3.42729286,25.6244866 L3.40903061,25.6363965 L3.38970967,25.6459243 C3.38825398,25.6467183 3.3688007,25.6571725 3.33545223,25.6751695 C3.30197143,25.6939605 3.25446309,25.7217501 3.19702962,25.7589352 C3.08348602,25.833173 2.93024186,25.9444636 2.76905759,26.0930715 C2.44443935,26.3892288 2.09639778,26.8396843 1.97981047,27.4278966 C1.86944291,28.0006262 1.99820506,28.6216566 2.36596457,29.2564495 C2.7559564,28.9584396 3.39407673,28.4770186 4.16069453,27.9400185 C5.28766108,27.1447078 6.74400993,26.2141546 8.01323682,25.5011539 C9.28100801,24.7812721 10.3582165,24.2671652 10.6917012,24.1083678 L10.9748985,23.9770952 L10.9748985,23.9773598 C11.0251859,23.9538049 11.0595931,23.9375281 11.0754733,23.9303823" id="Shape" fill="#FFDD18"></path>
                    <path d="M5.67368285,17.4675898 L5.66759543,17.4510484 C5.26542876,17.6723062 4.70962093,18.0872969 4.45315532,18.7586132 C4.3433171,19.0332005 4.29938182,19.3329307 4.3075866,19.6486731 C4.3147327,19.9641507 4.38275299,20.2981547 4.51111813,20.6455242 C4.9343261,20.4180468 5.63279127,20.0595615 6.45790123,19.6693167 C7.28751059,19.2796013 8.24614677,18.8611699 9.2042536,18.4943478 L6.27329363,17.2070296 C6.09543513,17.2832524 5.99168433,17.327848 5.98189153,17.3319502 L5.67368285,17.4675898 Z" id="Shape" fill="#FFDD18"></path>
                    <path d="M4.60137074,21.3826091 L4.58138812,21.3904167 C4.57993244,21.3910783 4.55968515,21.3999445 4.52514567,21.4151626 C4.49047384,21.4311747 4.44111281,21.4549943 4.38103263,21.4872831 C4.26073994,21.5518608 4.09757064,21.6499182 3.92302051,21.7847637 C3.7470147,21.9193446 3.56425979,22.0919045 3.40386953,22.3037668 C3.24414095,22.5156291 3.09976325,22.7653381 3.02115614,23.0559375 C2.86023654,23.6203302 2.93778496,24.2537998 3.25049304,24.9190289 C3.70281474,24.6272385 4.47009422,24.1413182 5.38082506,23.6164926 C6.29433493,23.0910053 7.34520874,22.5284652 8.36260174,22.0457209 C9.3723193,21.5586097 10.3476297,21.1510295 11.0807667,20.8641354 C11.8152271,20.5773736 12.3167775,20.408122 12.3882385,20.3798031 C12.5377772,20.3104615 12.709813,20.2219319 12.8739086,20.1065391 L10.0684024,18.8738737 C8.79269113,19.3473548 7.43175596,19.9429777 6.40046776,20.4533792 C5.87827307,20.7052056 5.4456693,20.9342709 5.13124087,21.0987586 C4.81720945,21.2633787 4.63141083,21.3656707 4.62029467,21.372155 L4.60137074,21.3826091 Z" id="Shape" fill="#FFDD18"></path>
                    <path d="M8.14424866,13.3348855 L8.12307503,13.3415021 L8.1019014,13.3453397 C8.10057805,13.3457367 8.07940442,13.3506329 8.04235056,13.3589698 C8.00397335,13.3681006 7.95103927,13.3823924 7.88487167,13.4027714 C7.75385983,13.4440588 7.56938456,13.5078424 7.37498416,13.6106638 C6.985257,13.8147185 6.51070298,14.1570594 6.24179785,14.706234 C5.97143705,15.2364853 5.93186882,15.8833203 6.11475606,16.5996292 C6.33919656,16.5024981 6.6450232,16.3804887 6.99862285,16.2403499 C7.35195783,16.1002112 7.75782988,15.943928 8.2037995,15.7864538 C8.85224197,15.5502426 9.59861249,15.3078118 10.3476297,15.0824517 C10.7287551,14.9727491 11.1098805,14.8671488 11.4830657,14.7680327 C11.8549276,14.6683873 12.2307596,14.5825043 12.5827712,14.5005913 C12.758777,14.4611566 12.9308128,14.4226482 13.0988785,14.3851985 C13.2682675,14.351454 13.4323632,14.3186359 13.5911654,14.2870087 C13.9061232,14.225607 14.1959373,14.1722775 14.4526676,14.1272849 C14.9714215,14.0428576 15.3538703,13.9891311 15.5351695,13.9638558 L15.8395404,13.9228332 L15.8395404,13.9232301 C15.8951212,13.9164813 15.9334984,13.9118497 15.9493786,13.9098647 C16.3596178,13.8267607 16.8916053,13.6315721 17.2370001,13.1866745 C17.5188741,12.803708 17.6379758,12.2950267 17.5797483,11.6239751 C17.345515,11.6323119 17.0318806,11.6500443 16.6507552,11.6745256 C16.4588692,11.6884204 16.2537496,11.7033738 16.0353965,11.7192535 C15.8170434,11.7410882 15.5881036,11.7639815 15.3499002,11.7879335 C15.1090501,11.815723 14.8589366,11.8445712 14.6035297,11.8740811 C14.3481227,11.9110015 14.0874224,11.9488482 13.822752,11.9869596 C13.2894412,12.0655644 12.7495136,12.1652098 12.2188494,12.2714718 C11.1561978,12.4835987 10.1478036,12.7420416 9.40010969,12.9556242 C9.02295438,13.0602982 8.71461337,13.154518 8.49890699,13.2229333 C8.28055392,13.2916132 8.15483548,13.3317096 8.14424866,13.3348855 M10.6652342,8.8159064 C11.149581,8.72764147 11.9144785,8.58141547 12.8315614,8.46483166 C13.0578546,8.43624811 13.2934112,8.40647358 13.5342613,8.37590507 C13.777758,8.35195312 14.0265482,8.32733951 14.2793084,8.30232891 C14.529422,8.28128824 14.7835055,8.25998292 15.0402358,8.23854526 C15.2956428,8.22081287 15.5550198,8.20797674 15.81175,8.19553761 L16.5118032,8.82768388 C15.8276303,8.84660725 15.1275771,8.90059839 14.4407574,8.96147075 C13.7618778,9.02935667 13.1028485,9.11021105 12.5311605,9.19702034 C11.9621191,9.28607926 11.4671855,9.36958026 11.1191439,9.43706919 C10.7711023,9.50707241 10.5633361,9.54888908 10.5487792,9.55166803 L10.5276056,9.55603496 L10.5064319,9.55762294 C10.5051086,9.5578876 10.4826116,9.56040189 10.4442344,9.56476882 C10.4058572,9.56992974 10.3515998,9.57839894 10.2841088,9.59176439 C10.1491269,9.61862763 9.96121093,9.66454657 9.75212132,9.74420997 C9.54567841,9.82546134 9.31806187,9.93992785 9.09838544,10.0984607 C8.87870901,10.2563318 8.66829605,10.4595926 8.50552375,10.7201528 C8.34672152,10.9734347 8.23026654,11.2555649 8.17865581,11.5719689 C8.12439838,11.8879759 8.12307503,12.2316401 8.17600911,12.5980652 C8.69740979,12.4409881 9.57214545,12.1810895 10.6030366,11.9382617 C11.1112038,11.8126794 11.6736284,11.7003302 12.2281129,11.5895689 C12.7892141,11.4826453 13.3648722,11.3904104 13.91671,11.3090267 C14.4778112,11.2350536 15.0111221,11.1687556 15.5100258,11.123366 C16.0115762,11.0798291 16.4654859,11.0460846 16.8571981,11.0250439 C17.6459159,10.9895792 18.1633465,10.9836242 18.2427476,10.9813746 C18.4081666,10.9666859 18.5960826,10.9370437 18.7866453,10.8813322 L19.3199561,11.3618269 C19.1545371,11.4302421 18.9851481,11.4786754 18.8223758,11.5138755 C18.6622502,11.5514575 18.5087414,11.5748802 18.3684661,11.5889073 L18.3671427,11.5857313 C18.3340589,11.5865253 18.2745081,11.5882456 18.1937836,11.5903629 C18.2123105,11.8002403 18.2162806,11.9979431 18.2056938,12.1836038 C18.1977537,12.3716465 18.17658,12.5493673 18.1408495,12.7145167 C18.105119,12.8797984 18.0548316,13.0335673 17.988664,13.1759557 C17.9238198,13.3200644 17.8470654,13.4555716 17.7531074,13.5786396 C17.6445925,13.7236747 17.5175507,13.8442284 17.3852155,13.9486377 C17.2542037,14.0547674 17.1139284,14.1419737 16.9710064,14.2142265 C16.8280844,14.2864794 16.6811923,14.3436465 16.5395936,14.3891684 C16.3993183,14.436146 16.2656598,14.4726694 16.1399413,14.499665 L16.1399413,14.496489 C16.1081809,14.5009883 16.0539235,14.5086635 15.9798157,14.51925 C16.0592169,14.9293445 16.0790671,15.2986809 16.04466,15.6362579 C16.0274564,15.8039216 15.9930493,15.961925 15.9427619,16.110533 C15.8937979,16.2601996 15.8329237,16.4032497 15.7521992,16.5357132 C15.6595646,16.6930551 15.5457563,16.8269743 15.4253313,16.9468664 C15.3062296,17.0672878 15.1752177,17.1699768 15.0402358,17.2578448 C14.7676253,17.4322573 14.484428,17.5530757 14.2422546,17.6349888 L14.2409312,17.6319451 C14.2131408,17.6392234 14.1655002,17.6513978 14.1006559,17.6679392 C14.1602068,17.8672301 14.2038774,18.05739 14.2316678,18.2404041 C14.2634282,18.4250062 14.2779851,18.6012714 14.2753384,18.769729 C14.2687216,19.104924 14.2052007,19.4143144 14.0741889,19.6959153 L14.0741889,19.6959153 C13.9365603,19.9787071 13.7539377,20.2121394 13.5435247,20.4005791 L12.8924356,20.114479 C13.1293156,19.9436394 13.3436986,19.716162 13.4866206,19.4211957 C13.6864468,18.9863553 13.6930635,18.4610003 13.5011775,17.8211788 C13.1200521,17.9262498 12.6092382,18.0674472 12.0282867,18.248344 C11.4513053,18.4306964 10.7949227,18.6487783 10.1266299,18.8996783 L9.26512779,18.5210787 C9.50862455,18.4293731 9.75212132,18.3380646 9.99164803,18.2480793 C10.2311747,18.1608731 10.4707014,18.0792247 10.7009647,18.0006199 C10.9299046,17.9242648 11.1535511,17.850027 11.3679341,17.7787005 C11.5836405,17.7125349 11.7914067,17.6491482 11.9859395,17.5893345 C12.7614237,17.3535202 13.3609022,17.2092792 13.5964588,17.1481422 L13.8955364,17.0743013 L13.9008298,17.0884608 C13.9458237,17.0774773 13.9762608,17.0699344 13.9908177,17.0663615 C14.39047,16.9390588 14.8999605,16.6849829 15.1963914,16.2022386 C15.4372414,15.7892328 15.4981156,15.2673184 15.3697505,14.6067209 C14.9634814,14.6685196 14.4314939,14.7620778 13.8134885,14.8819699 C13.20607,15.0090079 12.5073401,15.1606595 11.8019935,15.3502901 C10.3807135,15.7189649 8.87738566,16.2218236 7.76709335,16.654679 C7.09866826,16.9086226 6.59195679,17.1285571 6.33813788,17.2354808 L5.48404651,16.8604541 L5.49145728,16.8567488 C5.36931189,16.4080136 5.31875985,15.9739672 5.35131431,15.5658577 C5.36600351,15.3614059 5.39855797,15.1622474 5.44858068,14.9695732 C5.50072075,14.7776929 5.57363744,14.5934878 5.66203735,14.4158993 C6.13301832,13.4703927 6.99253543,13.0065717 7.5319337,12.8105892 C7.45067989,12.3441216 7.45279725,11.9054436 7.5247876,11.4960108 C7.59241089,11.0844606 7.74327301,10.7094339 7.95897939,10.3704013 C8.23953001,9.91928418 8.62330208,9.6061885 8.98590052,9.38029909 C9.35379237,9.15652698 9.72300758,9.0341206 10.0009115,8.9625294 C9.9704744,8.48693097 10.0234085,8.05076724 10.1398634,7.64861264 C10.2536717,7.24420841 10.4468811,6.88704643 10.6996413,6.57196577 C11.0013656,6.1889992 11.3758742,5.93108564 11.7331792,5.74807155 C12.0891609,5.56360182 12.4477893,5.47136695 12.73628,5.41975777 L13.4350099,6.0508454 C13.2418005,6.06857778 13.1279922,6.07889962 13.1174054,6.07982594 L12.7786273,6.11277641 L12.7786273,6.09517636 C12.5483641,6.13752235 12.2744302,6.21903839 11.9938796,6.35745685 C11.713329,6.49587532 11.4301316,6.69384283 11.2038384,6.98007528 C11.0172458,7.21509554 10.8703537,7.4835956 10.7816892,7.79311834 C10.6943479,8.10250875 10.6546474,8.44498197 10.6652342,8.8159064" id="Shape" fill="#A87B50"></path>
                    <path d="M13.5011775,17.8213111 C13.1200521,17.9262498 12.6092382,18.0675795 12.0282867,18.2484763 C11.4513053,18.4308288 10.7949227,18.6489106 10.1266299,18.8998106 L12.8924356,20.114479 C13.1293156,19.9437717 13.3436986,19.716162 13.4866206,19.421328 C13.6864468,18.9864876 13.6930635,18.4611326 13.5011775,17.8213111" id="Shape" fill="#FFDD18"></path>
                    <path d="M13.8955364,17.0743013 L13.9008298,17.0884608 C13.9458237,17.0774773 13.9762608,17.0699344 13.9908177,17.0664938 C14.39047,16.9390588 14.8999605,16.6849829 15.1963914,16.2023709 C15.4372414,15.7892328 15.4981156,15.2673184 15.3697505,14.6067209 C14.9634814,14.6685196 14.4328173,14.7620778 13.8134885,14.8819699 C13.20607,15.0090079 12.5073401,15.1607918 11.8019935,15.3502901 C10.3807135,15.7189649 8.87738566,16.2218236 7.76709335,16.654679 C7.0988006,16.908755 6.59195679,17.1285571 6.33800554,17.2354808 L9.26512779,18.5210787 C9.50862455,18.4293731 9.75212132,18.3380646 9.99164803,18.2480793 C10.2311747,18.1608731 10.4707014,18.0792247 10.7009647,18.0006199 C10.9299046,17.9242648 11.1535511,17.850027 11.3679341,17.7787005 C11.5836405,17.7125349 11.7914067,17.6491482 11.9859395,17.5893345 C12.7614237,17.3535202 13.3609022,17.2092792 13.5964588,17.1481422 L13.8955364,17.0743013 Z" id="Shape" fill="#FFDD18"></path>
                    <path d="M15.9493786,13.9098647 C16.3596178,13.8267607 16.8916053,13.6315721 17.2370001,13.1866745 C17.5188741,12.803708 17.6379758,12.2950267 17.5797483,11.6239751 C17.345515,11.6323119 17.0318806,11.6500443 16.6507552,11.6745256 C16.4601925,11.6884204 16.2537496,11.7033738 16.0353965,11.7192535 C15.8170434,11.7410882 15.5881036,11.7639815 15.3499002,11.7879335 C15.1090501,11.815723 14.8589366,11.8445712 14.6035297,11.8740811 C14.3481227,11.9110015 14.0874224,11.9488482 13.822752,11.9869596 C13.2894412,12.0655644 12.7508369,12.1652098 12.2188494,12.2714718 C11.1561978,12.4835987 10.1478036,12.7420416 9.40010969,12.9556242 C9.02295438,13.0602982 8.71461337,13.154518 8.49890699,13.2229333 C8.28055392,13.2916132 8.15483548,13.3317096 8.14424866,13.3348855 L8.12307503,13.3415021 L8.1019014,13.3453397 C8.10057805,13.3457367 8.07940442,13.3506329 8.04235056,13.3589698 C8.00397335,13.3681006 7.95103927,13.3823924 7.88487167,13.4027714 C7.75385983,13.4440588 7.56938456,13.5078424 7.37498416,13.6106638 C6.985257,13.8147185 6.51070298,14.1570594 6.24193019,14.706234 C5.97143705,15.2366176 5.93200116,15.8833203 6.11475606,16.5996292 C6.33919656,16.5024981 6.64515554,16.3804887 6.99862285,16.2403499 C7.35209017,16.1002112 7.75782988,15.943928 8.2037995,15.7864538 C8.85224197,15.5502426 9.59861249,15.3078118 10.3476297,15.0824517 C10.7287551,14.9727491 11.1098805,14.8671488 11.4830657,14.7680327 C11.8549276,14.6683873 12.2307596,14.5825043 12.5827712,14.5005913 C12.758777,14.4611566 12.9308128,14.4226482 13.0988785,14.3851985 C13.2682675,14.351454 13.4323632,14.3186359 13.5911654,14.2870087 C13.9061232,14.225607 14.1959373,14.1722775 14.4526676,14.1272849 C14.9714215,14.0428576 15.3538703,13.9891311 15.5351695,13.9638558 L15.8395404,13.9228332 L15.8395404,13.9232301 C15.8951212,13.9164813 15.9334984,13.9118497 15.9493786,13.9098647" id="Shape" fill="#FFDD18"></path>
                    <path d="M12.7786273,6.11277641 L12.7786273,6.09517636 C12.5483641,6.13752235 12.2744302,6.21903839 11.9938796,6.35745685 C11.713329,6.49600765 11.4301316,6.69384283 11.2038384,6.98007528 C11.0172458,7.21509554 10.8703537,7.4835956 10.7816892,7.79311834 C10.6943479,8.10250875 10.6546474,8.44498197 10.6652342,8.8159064 C11.149581,8.72764147 11.9144785,8.58141547 12.8315614,8.46483166 C13.0578546,8.43624811 13.2934112,8.40647358 13.5342613,8.37590507 C13.7764347,8.35195312 14.0265482,8.32733951 14.2793084,8.30232891 C14.529422,8.28128824 14.7835055,8.25998292 15.0402358,8.23854526 C15.2956428,8.22081287 15.5550198,8.20797674 15.81175,8.19553761 L13.4350099,6.0508454 C13.2418005,6.06857778 13.1279922,6.07889962 13.1174054,6.07982594 L12.7786273,6.11277641 Z" id="Shape" fill="#FFDD18"></path>
                    <path d="M10.5276056,9.55603496 L10.5064319,9.55762294 C10.5051086,9.5578876 10.4826116,9.56040189 10.4442344,9.56476882 C10.4058572,9.56992974 10.3515998,9.57839894 10.2841088,9.59176439 C10.1491269,9.61875996 9.96121093,9.66454657 9.75212132,9.74420997 C9.54567841,9.82546134 9.31806187,9.93992785 9.09838544,10.0984607 C8.87870901,10.2563318 8.66829605,10.4595926 8.50552375,10.7201528 C8.34672152,10.9734347 8.23026654,11.2555649 8.17865581,11.5719689 C8.12439838,11.8879759 8.12307503,12.2316401 8.17600911,12.5980652 C8.69740979,12.4409881 9.57214545,12.1810895 10.6030366,11.9382617 C11.1112038,11.8126794 11.672305,11.7003302 12.2281129,11.5895689 C12.7892141,11.4826453 13.3648722,11.3904104 13.9153867,11.3090267 C14.4778112,11.2350536 15.0111221,11.168888 15.5100258,11.123366 C16.0115762,11.0798291 16.4654859,11.0460846 16.8571981,11.0250439 C17.6459159,10.9895792 18.1633465,10.9836242 18.2427476,10.9813746 C18.4081666,10.9666859 18.5960826,10.9370437 18.7866453,10.8813322 L16.5118032,8.82768388 C15.8263069,8.84660725 15.1275771,8.90059839 14.4407574,8.96147075 C13.7618778,9.02935667 13.1028485,9.11021105 12.5311605,9.19702034 C11.9621191,9.28607926 11.4671855,9.36958026 11.1191439,9.43706919 C10.7711023,9.50707241 10.5633361,9.54888908 10.5487792,9.55166803 L10.5276056,9.55603496 Z" id="Shape" fill="#FFDD18"></path>
                    <path d="M16.469456,2.95641196 L16.446959,2.95588264 L16.4257854,2.95244203 C16.424462,2.95230969 16.401965,2.9497954 16.3635878,2.9455608 C16.3252106,2.94238485 16.2709532,2.93907657 16.2021389,2.93775326 C16.0645103,2.93510664 15.8739476,2.94092921 15.6529478,2.97387968 C15.4332714,3.00669783 15.1831578,3.06690854 14.931721,3.1718472 C14.6842542,3.28035881 14.4367873,3.43690665 14.2171109,3.65273888 C14.1099194,3.75807454 14.0119913,3.87320271 13.9259735,4.00010836 C13.8426023,4.12899897 13.7698179,4.26794676 13.7089437,4.41629007 C13.5871954,4.71443233 13.5038242,5.04565739 13.4786805,5.41975777 C13.7235006,5.39620281 14.055662,5.3779411 14.4367873,5.35544479 C14.8192361,5.33533045 15.2506488,5.31058451 15.7270555,5.30542359 C16.0750971,5.29933635 16.4443123,5.2961604 16.8214676,5.29721905 C17.202593,5.30158598 17.5982752,5.31455444 17.9899874,5.32977254 C18.1858435,5.3381094 18.3803762,5.34551995 18.5775557,5.35769442 C18.7734118,5.37185387 18.9692679,5.38601331 19.1638006,5.40017275 C19.5528661,5.43166758 19.9260513,5.46130978 20.2886498,5.50325878 C20.6472782,5.54031152 21.0310503,5.63294338 21.3367446,5.66457054 C21.4915767,5.68150894 21.6212652,5.6754217 21.744337,5.66973146 C21.8674087,5.66509987 21.9825403,5.65715999 22.0870851,5.64697049 C22.5065877,5.60780045 22.7739048,5.52601975 22.90227,5.48764369 C22.90227,5.48764369 22.955204,5.47136695 23.0094615,5.45509021 C23.0623955,5.43881347 23.1140063,5.41975777 23.1140063,5.41975777 L23.1140063,5.4202871 C23.1497368,5.40573066 23.1748805,5.39567349 23.1867906,5.39130656 C23.4607245,5.24058129 23.7875924,4.86846588 24.037706,4.16194945 C24.2494423,3.57201684 24.4095679,2.86457409 24.6107174,2.19987433 C24.3870709,2.48266617 23.9635982,2.88296813 23.3072157,3.11957637 C23.14312,3.17886076 22.9644675,3.22914662 22.7686114,3.26381741 C22.575402,3.30311978 22.3702825,3.33262964 22.150606,3.34837706 C21.9296062,3.36438914 21.6966963,3.36796208 21.4518762,3.35843423 C21.2083794,3.3502297 20.9569425,3.33633492 20.6949188,3.30814837 C20.4342185,3.28088813 20.1655781,3.2434384 19.8916442,3.19751946 C19.6190337,3.15067421 19.3437765,3.10025601 19.097633,3.07670105 C18.8501662,3.0523521 18.6291664,3.05261677 18.4108133,3.0421626 C18.1898135,3.03025279 17.9754305,3.01238807 17.7835445,3.00524219 C17.3958024,2.98631882 17.0729045,2.97454134 16.8439646,2.96713079 C16.6137013,2.96051423 16.4800428,2.95667663 16.469456,2.95641196 M21.1104514,0.640483143 C21.3632116,0.702943483 21.6900795,0.782474551 22.0460612,0.845596546 C22.2233904,0.877488372 22.409983,0.906071918 22.6005457,0.928171233 C22.7911084,0.95159386 22.9909345,0.977001456 23.188114,0.98824961 C23.9755084,1.02980162 24.7695196,0.94841791 25.3901717,0.583448384 C24.6464479,1.23544434 23.5308621,1.35957104 22.4907075,1.26852715 C21.9785703,1.23054809 21.4862833,1.13222599 21.1303016,1.06301675 C20.7729966,0.993278197 20.5440567,0.935714113 20.5308232,0.933067488 L20.5070029,0.927509576 L20.4858292,0.920496021 C20.4845059,0.919966696 20.4620089,0.913217804 20.4223083,0.901440325 C20.3812844,0.889927508 20.3217336,0.873650767 20.2502726,0.854065745 C20.1020572,0.815028033 19.8889975,0.762360204 19.6269738,0.708766057 C19.1082198,0.610708617 18.3883163,0.51410682 17.6895865,0.620633459 C17.5188741,0.646438048 17.3772754,0.71128035 17.2833174,0.834216061 C17.1880361,0.95596079 17.131132,1.1229628 17.0689344,1.2822896 C17.0093836,1.44505701 16.9339525,1.58665142 16.8796951,1.75113914 C16.8241143,1.91483287 16.7791203,2.08858377 16.7447132,2.27212718 C17.0160003,2.27967006 17.3812455,2.29409417 17.8047181,2.31553183 C18.0124844,2.32056041 18.2189273,2.3069303 18.4597774,2.32413336 C18.6993041,2.33921912 18.9864714,2.40088547 19.2789322,2.46612476 C19.8625305,2.59289808 20.4421586,2.69055853 20.9834096,2.74415267 C21.5326007,2.80648068 22.0367978,2.8137589 22.4854141,2.76903094 C22.9393238,2.73184587 23.3297126,2.63180346 23.6592273,2.4891504 C23.992712,2.35298156 24.2626758,2.17076146 24.4744121,1.97821953 C24.6821784,1.77879637 24.8449507,1.59062136 24.9534655,1.43089757 C25.0619804,1.27183543 25.1241779,1.15736892 25.1413815,1.12825605 C25.2168126,0.993939853 25.2988604,0.80722049 25.3901717,0.583448384 C25.2393095,1.07333859 25.0924175,1.42150205 24.9680224,1.6569193 L24.9693457,1.65400802 C24.9547889,1.67822463 24.9296452,1.72162928 24.8939147,1.78038434 C24.6424778,2.63484708 24.4677953,3.61237786 24.233562,4.45585711 C24.1647477,4.70305184 24.0946101,4.92550063 24.0125623,5.1097057 C23.9358078,5.30105666 23.85376,5.46461806 23.7703889,5.60158088 C23.6856943,5.73867603 23.5996764,5.84930494 23.5123352,5.9373052 C23.4236706,6.02411449 23.335006,6.08578084 23.2542816,6.13619904 L23.2542816,6.13196444 C23.2344313,6.14149229 23.1987008,6.15697504 23.1497368,6.1762954 C23.1828206,6.72216172 23.2013475,7.23957682 23.2000241,7.72364445 C23.2172277,8.22703244 22.8228688,8.22015122 22.6190726,8.45953841 C22.3451388,8.69760229 22.030181,8.83191848 21.7165466,8.90589164 C21.4082056,8.98595203 21.1038346,9.00646337 20.8471043,9.00222877 L20.8471043,8.99892049 C20.8179906,8.9964062 20.7690266,8.99203927 20.702859,8.98621669 C20.6763919,9.81527184 20.4646556,10.4378903 20.045153,10.8819939 C19.8281233,11.1019284 19.5846265,11.2615198 19.330543,11.3714871 L18.8025255,10.8946977 C19.0764594,10.8090794 19.3490699,10.664706 19.5753631,10.4348466 C19.7394587,10.265992 19.8585604,10.0526741 19.9432549,9.80428835 C20.0319195,9.55762294 20.0795602,9.2688762 20.090147,8.93712181 C19.3014292,8.8811457 17.984694,8.8163034 16.5594439,8.87095619 L15.8607141,8.2400009 C16.1200911,8.22994373 16.379468,8.21988655 16.634875,8.20996171 C16.8902819,8.20427147 17.1430421,8.20321282 17.3852155,8.20255116 C17.8708857,8.20109552 18.3234721,8.20744742 18.7323879,8.22676778 C19.1386569,8.24370617 19.4906685,8.26262954 19.7725425,8.28142057 C20.0557398,8.30550486 20.2701229,8.32376657 20.3945179,8.33422073 L20.7002123,8.36359827 L20.7002123,8.37841936 C20.7465296,8.38278629 20.7769667,8.38569758 20.7928469,8.38715323 C21.199116,8.38530059 21.7787441,8.3340884 22.2022168,7.96289931 C22.2922047,7.88535321 22.3808693,7.80463116 22.477474,7.73515727 C22.571432,7.66171343 22.6627432,7.58575531 22.7077372,7.45077746 C22.7302342,7.38461184 22.7434677,7.30508077 22.7474378,7.21509554 C22.7514078,7.12405165 22.7474378,7.02228894 22.7474378,6.92383451 C22.7434677,6.725073 22.7355276,6.51850396 22.7249408,6.30598 C22.5767254,6.34065079 22.3967495,6.37002832 22.1876599,6.39503892 C22.0844384,6.40800738 21.9613667,6.40536076 21.819768,6.38524641 C21.6781694,6.36605838 21.5140737,6.32728533 21.3486547,6.29287921 C21.0112,6.21731808 20.6869787,6.18463227 20.3442306,6.14929983 C20.0014824,6.11409972 19.6415307,6.08088459 19.2736388,6.05097773 C17.8179516,5.9436571 16.2233125,5.92764502 15.0336191,5.99301665 C14.3150389,6.02212952 13.7632012,6.07492968 13.487944,6.09835231 L12.7945075,5.47348425 L12.803771,5.47229327 C12.830238,5.00344373 12.924196,4.57164693 13.0882917,4.19251796 C13.251064,3.81100703 13.4707404,3.46959246 13.7605545,3.19169689 C13.9511172,3.00537452 14.15359,2.85292894 14.3573862,2.72933158 C14.5638291,2.60732218 14.7782121,2.51892492 14.9820083,2.45024502 C15.3922475,2.31460551 15.7694028,2.26511363 16.0618636,2.26233467 C16.1439114,1.79983703 16.2841867,1.37730342 16.4866595,1.01220156 C16.5395936,0.92248099 16.5885577,0.82879048 16.6335516,0.728218747 C16.6772222,0.62725002 16.7222162,0.525222644 16.7738269,0.430870478 C16.826761,0.338238619 16.8916053,0.259104544 16.9776231,0.207098372 C17.063641,0.152842568 17.1721559,0.127964297 17.2899342,0.1152605 C17.9158797,0.0504181978 18.5391785,0.102953695 19.0738127,0.18102912 C19.6150636,0.26836773 20.06765,0.379922955 20.3852545,0.459189361 C20.5294999,0.356235666 20.6909488,0.270617361 20.868278,0.210009659 C21.0482538,0.151122262 21.2427866,0.112216881 21.4465828,0.0860152981 C21.650379,0.0602107087 21.864762,0.0484332294 22.0844384,0.0479039045 C22.3107316,0.0547851284 22.5449649,0.0775460996 22.7818449,0.10454167 C23.3495629,0.16594336 23.8815504,0.28014521 24.3248733,0.372380075 C24.5485198,0.421607292 24.748346,0.461174329 24.9256751,0.49677143 C25.105651,0.534618161 25.2604832,0.562937044 25.3901717,0.583448384 C25.2379862,0.578155135 25.1440282,0.568230293 25.1360881,0.567833299 L24.9958128,0.553541526 C24.9256751,0.544939997 24.8542141,0.536338467 24.8542141,0.536338467 L24.8674476,0.536338467 C24.6623281,0.515430133 24.3778074,0.466864572 24.0429994,0.420151649 C23.7055446,0.368410139 23.3164791,0.319712247 22.9035933,0.299068575 C22.2141269,0.250503014 21.5895048,0.345516836 21.1104514,0.640483143" id="Shape" fill="#A87B50"></path>
                    <path d="M20.090147,8.93712181 C19.3014292,8.8811457 17.984694,8.8163034 16.5594439,8.87095619 L18.8025255,10.8945653 C19.0764594,10.8090794 19.3490699,10.664706 19.5753631,10.4347143 C19.7394587,10.2658597 19.8585604,10.0526741 19.9432549,9.80428835 C20.0319195,9.55749061 20.0795602,9.2688762 20.090147,8.93712181" id="Shape" fill="#FFDD18"></path>
                    <path d="M20.7002123,8.36346594 L20.7002123,8.37841936 C20.7465296,8.38265396 20.7769667,8.38569758 20.7928469,8.38702089 C21.199116,8.38516826 21.7787441,8.33395607 22.2022168,7.96289931 C22.2922047,7.88522088 22.3808693,7.80463116 22.477474,7.73515727 C22.571432,7.66171343 22.6627432,7.58575531 22.7077372,7.45077746 C22.7302342,7.38447951 22.7434677,7.30508077 22.7487611,7.21496321 C22.7527312,7.12391932 22.7474378,7.02215661 22.7474378,6.92370218 C22.7434677,6.725073 22.7355276,6.51837162 22.7249408,6.30584767 C22.5780487,6.34065079 22.3967495,6.37002832 22.1876599,6.39490659 C22.0844384,6.40800738 21.9613667,6.40536076 21.819768,6.38524641 C21.6781694,6.36592605 21.5140737,6.32728533 21.3486547,6.29274688 C21.0112,6.21718575 20.6883021,6.18463227 20.3442306,6.14929983 C20.0014824,6.11396739 19.6415307,6.08075225 19.2736388,6.0508454 C17.8179516,5.94352477 16.2233125,5.92751269 15.0336191,5.99301665 C14.3150389,6.02212952 13.7632012,6.07479735 13.487944,6.09835231 L15.8607141,8.2400009 C16.1200911,8.2298114 16.379468,8.21975422 16.634875,8.20982938 C16.8902819,8.20427147 17.1430421,8.20308049 17.3852155,8.20241883 C17.8708857,8.20109552 18.3234721,8.20731509 18.7323879,8.22676778 C19.1386569,8.24370617 19.4906685,8.26249721 19.7725425,8.28142057 C20.0557398,8.30550486 20.2701229,8.32363424 20.3945179,8.33422073 L20.7002123,8.36346594 Z" id="Shape" fill="#FFDD18"></path>
                    <path d="M23.1867906,5.39130656 C23.4607245,5.24058129 23.7875924,4.86846588 24.037706,4.16194945 C24.2494423,3.57201684 24.4095679,2.86457409 24.6107174,2.19987433 C24.3870709,2.48266617 23.9635982,2.88296813 23.3072157,3.11957637 C23.14312,3.17886076 22.9644675,3.22914662 22.7686114,3.26381741 C22.575402,3.30311978 22.3702825,3.33262964 22.150606,3.34837706 C21.9309296,3.36438914 21.6966963,3.36796208 21.4518762,3.35843423 C21.2083794,3.3502297 20.9569425,3.33633492 20.6949188,3.30814837 C20.4342185,3.28088813 20.1655781,3.2434384 19.8929675,3.19751946 C19.6190337,3.15067421 19.3437765,3.10025601 19.097633,3.07670105 C18.8501662,3.0523521 18.6291664,3.05261677 18.4108133,3.0421626 C18.1898135,3.03025279 17.9754305,3.01238807 17.7835445,3.00524219 C17.3958024,2.98631882 17.0729045,2.97454134 16.8439646,2.96713079 C16.6137013,2.96051423 16.4800428,2.95667663 16.469456,2.95641196 L16.446959,2.95588264 L16.4257854,2.95244203 C16.424462,2.95230969 16.401965,2.9497954 16.3635878,2.9455608 C16.3252106,2.94238485 16.2709532,2.93907657 16.2021389,2.93775326 C16.0645103,2.93510664 15.8739476,2.94092921 15.6529478,2.97387968 C15.4332714,3.00669783 15.1831578,3.06690854 14.931721,3.1718472 C14.6842542,3.28035881 14.4367873,3.43690665 14.2171109,3.65273888 C14.1099194,3.75807454 14.0119913,3.87320271 13.9259735,4.00010836 C13.8426023,4.12899897 13.7698179,4.26781443 13.7089437,4.41629007 C13.5871954,4.71443233 13.5038242,5.04565739 13.4786805,5.41975777 C13.7235006,5.39620281 14.055662,5.3779411 14.4367873,5.35544479 C14.8192361,5.33533045 15.2506488,5.31058451 15.7270555,5.30542359 C16.0750971,5.29933635 16.4443123,5.2961604 16.822791,5.29721905 C17.202593,5.30158598 17.5982752,5.31455444 17.9899874,5.32977254 C18.1858435,5.3381094 18.3816996,5.34551995 18.5775557,5.35756209 C18.7734118,5.37185387 18.9692679,5.38601331 19.165124,5.40017275 C19.5528661,5.43166758 19.9260513,5.46130978 20.2886498,5.50325878 C20.6472782,5.54031152 21.0310503,5.63294338 21.3367446,5.66457054 C21.4915767,5.68150894 21.6212652,5.67528937 21.744337,5.66973146 C21.8674087,5.66509987 21.9825403,5.65715999 22.0870851,5.64697049 C22.5079111,5.60780045 22.7739048,5.52601975 22.90227,5.48764369 C22.90227,5.48764369 22.955204,5.47136695 23.0094615,5.45509021 C23.0623955,5.43881347 23.1140063,5.41975777 23.1140063,5.41975777 L23.1140063,5.4202871 C23.1497368,5.40573066 23.1748805,5.39567349 23.1867906,5.39130656" id="Shape" fill="#FFDD18"></path>
                    <path d="M24.8542141,0.536206136 L24.8674476,0.536206136 C24.6623281,0.515430133 24.3778074,0.466732241 24.0429994,0.420019317 C23.7055446,0.368277807 23.3164791,0.319712247 22.9035933,0.299068575 C22.2141269,0.250370683 21.5895048,0.345516836 21.1104514,0.640350812 C21.3632116,0.702943483 21.6900795,0.782474551 22.0460612,0.845596546 C22.2233904,0.877488372 22.409983,0.905939586 22.6005457,0.928038901 C22.7911084,0.951461529 22.9909345,0.977001456 23.188114,0.98824961 C23.9755084,1.02966928 24.7695196,0.948285579 25.3901717,0.583448384 C25.2379862,0.578155135 25.1440282,0.568230293 25.1360881,0.567700968 L24.9958128,0.553409195 C24.9256751,0.544807665 24.8542141,0.536206136 24.8542141,0.536206136" id="Shape" fill="#FFDD18"></path>
                    <path d="M20.2570029,0.677509576 L20.2358292,0.670496021 C20.2345059,0.669966696 20.2120089,0.663085473 20.1723083,0.651440325 C20.1312844,0.639927508 20.0717336,0.623650767 20.0002726,0.604065745 C19.8520572,0.565028033 19.6389975,0.512360204 19.3769738,0.458633726 C18.8582198,0.360708617 18.1383163,0.26410682 17.4395865,0.370633459 C17.2688741,0.396438048 17.1272754,0.46128035 17.0333174,0.584216061 C16.9380361,0.70596079 16.881132,0.872830469 16.8189344,1.0322896 C16.7593836,1.19505701 16.6839525,1.33665142 16.6296951,1.50113914 C16.5741143,1.66470054 16.5291203,1.83858377 16.4947132,2.02212718 C16.7660003,2.02967006 17.1312455,2.04409417 17.5547181,2.06553183 C17.7624844,2.07056041 17.9689273,2.0569303 18.2097774,2.07413336 C18.4493041,2.08921912 18.7364714,2.15088547 19.0289322,2.21612476 C19.6125305,2.34289808 20.1921586,2.44055853 20.7334096,2.49402034 C21.2826007,2.55648068 21.7867978,2.5637589 22.2354141,2.51903094 C22.6893238,2.48184587 23.0797126,2.38180346 23.4092273,2.2391504 C23.742712,2.10284923 24.0126758,1.92076146 24.2244121,1.72808719 C24.4321784,1.52879637 24.596274,1.34062136 24.7034655,1.18089757 C24.8119804,1.02183543 24.8741779,0.907368919 24.8913815,0.878123718 C24.9668126,0.743939853 25.0488604,0.55722049 25.1401717,0.333448384 C24.3964479,0.985444344 23.2808621,1.10957104 22.2407075,1.01852715 C21.7285703,0.980548088 21.2362833,0.882225986 20.8803016,0.813016754 C20.52432,0.743145866 20.2940567,0.685714113 20.2808232,0.683067488 L20.2570029,0.677509576 Z" id="Shape" fill="#FFDD18"></path>
                </g>
                <path d="M121.75,63 C121.75,63 123.591079,63.8271109 127.25,63.8271109 C130.908921,63.8271109 132.75,63 132.75,63 L132.75,68.5 L121.75,68.5 L121.75,63 Z" id="Rectangle" fill="#E6E7E8"></path>
            </g>
        </g>
    </g>
</svg>